<svg width="279" height="300" viewBox="0 0 279 300" fill="none" xmlns="http://www.w3.org/2000/svg">
<g clip-path="url(#clip0_113_48)">
<path fill-rule="evenodd" clip-rule="evenodd" d="M47.6618 34.1273C48.8468 31.2351 49.5 28.0689 49.5 24.75C49.5 11.081 38.419 0 24.75 0C11.081 0 0 11.081 0 24.75C0 38.419 11.081 49.5 24.75 49.5C27.5115 49.5 30.1674 49.0477 32.6476 48.2132L144.188 174.938L162.375 164.625L47.6618 34.1273ZM21.75 246.563L42.75 234.938V145.312L94.6875 203.438L113.062 192.938L21.75 90V246.563ZM182.063 1.6875H51.5625L68.5845 20.9541L69.375 21.75H74.8125H133.875H162.563L186 22.3125L197.063 24L209.063 28.3125L221.063 34.3125L234 44.0625L241.688 53.0625L245.625 57.9375L249.938 65.625L254.25 73.875L256.688 81.75L258.75 91.875V99.375V104.625L257.625 110.25L256.688 114.938L255 120L252.75 125.438L248.063 132.938L244.688 137.625L241.125 141L236.063 145.688L227.625 151.125L176.813 180.75L67.3125 243.938L46.8203 255.52C42.6676 252.37 37.4896 250.5 31.875 250.5C18.206 250.5 7.125 261.581 7.125 275.25C7.125 288.919 18.206 300 31.875 300C45.544 300 56.625 288.919 56.625 275.25C56.625 274.879 56.6168 274.51 56.6007 274.144L155.625 216.938L234.75 171.188L248.063 162L256.688 153.938L264.375 144.563L269.813 136.125L275.063 123.75L276.938 116.063L278.25 105.75V97.6875L276.938 82.875L274.5 73.875L270.375 63L266.813 55.5L260.813 45.75L255.563 39.375L249.938 32.8125L240.75 24L233.063 18.1875L224.625 13.3125L218.813 10.5L205.5 5.625L193.688 3L182.063 1.6875ZM137.438 251.813L155.625 240.938L175.125 262.688H221.25L186.563 223.5L205.313 212.813L268.125 283.875H165.75L137.438 251.813Z" fill="url(#paint0_linear_113_48)"/>
<path d="M69.4868 281H65.0435H64.6162V280.573V278.375V277.948H65.0435H69.499C71.3464 277.948 72.2741 277.574 72.2822 276.825C72.2822 276.695 72.2415 276.54 72.1602 276.361C72.0869 276.174 71.9608 275.946 71.7817 275.678C71.6108 275.409 71.3952 275.128 71.1348 274.835L67.79 270.966L67.5459 270.685L67.8022 270.404L69.2793 268.756L69.5967 268.39L69.9141 268.769L73.564 273.004C74.7196 274.355 75.2933 275.678 75.2852 276.972C75.2852 278.314 74.7806 279.324 73.7715 279.999C72.7705 280.666 71.3423 281 69.4868 281ZM83 281H82.0723C80.6318 281 79.5373 280.569 78.7886 279.706C78.0399 278.843 77.6655 277.606 77.6655 275.995V265.155V264.728H78.0928H80.1558H80.583V265.155V276.007C80.583 276.487 80.64 276.87 80.7539 277.155C80.8678 277.44 81.0306 277.643 81.2422 277.765C81.4619 277.887 81.7508 277.948 82.1089 277.948H83C83.1709 277.948 83.3092 277.989 83.415 278.07C83.5127 278.16 83.5819 278.286 83.6226 278.449C83.6632 278.611 83.6877 278.75 83.6958 278.864C83.7039 278.97 83.708 279.116 83.708 279.303C83.708 279.344 83.708 279.372 83.708 279.389V279.523C83.708 279.922 83.6795 280.223 83.6226 280.426C83.5168 280.809 83.3092 281 83 281ZM87.126 284.577L88.2368 283.454C88.603 283.096 88.9448 283.075 89.2622 283.393L90.4463 284.577C90.7881 284.918 90.7799 285.272 90.4219 285.639L89.2988 286.75C88.957 287.091 88.6152 287.091 88.2734 286.75L87.0771 285.565C86.7679 285.256 86.7842 284.927 87.126 284.577ZM82.7681 284.577L83.8911 283.454C84.2492 283.087 84.5869 283.067 84.9043 283.393L86.0884 284.577C86.4302 284.918 86.422 285.272 86.064 285.639L84.9409 286.75C84.5991 287.091 84.2573 287.091 83.9155 286.75L82.7314 285.565C82.4141 285.248 82.4263 284.918 82.7681 284.577ZM82.8901 281C82.5239 281 82.2554 280.858 82.0845 280.573C81.9054 280.288 81.8159 279.938 81.8159 279.523V279.389C81.8159 278.982 81.9054 278.64 82.0845 278.363C82.2554 278.087 82.5239 277.948 82.8901 277.948H85.7344C86.4587 277.948 86.9795 277.798 87.2969 277.497C87.6143 277.195 87.7729 276.703 87.7729 276.02V272.431V272.003H88.2002H90.3242H90.7515V272.431V276.032C90.7515 277.643 90.3242 278.876 89.4697 279.73C88.6152 280.577 87.3742 281 85.7466 281H82.8901ZM110.661 269.098L111.772 267.975C112.138 267.617 112.48 267.597 112.797 267.914L113.981 269.098C114.323 269.44 114.315 269.794 113.957 270.16L112.834 271.271C112.492 271.613 112.15 271.613 111.809 271.271L110.612 270.087C110.303 269.778 110.319 269.448 110.661 269.098ZM106.303 269.098L107.426 267.975C107.784 267.609 108.122 267.589 108.439 267.914L109.624 269.098C109.965 269.44 109.957 269.794 109.599 270.16L108.476 271.271C108.134 271.613 107.792 271.613 107.451 271.271L106.267 270.087C105.949 269.77 105.961 269.44 106.303 269.098ZM105.095 277.948H115.031C116.073 277.948 116.822 277.765 117.277 277.399C117.741 277.033 117.973 276.463 117.973 275.69V272.858V272.431H118.4H120.561H120.988V272.858V275.714C120.988 276.235 121.07 276.658 121.232 276.984C121.403 277.309 121.664 277.554 122.014 277.716C122.372 277.871 122.844 277.948 123.43 277.948H123.637C123.808 277.948 123.942 277.993 124.04 278.083C124.146 278.164 124.219 278.286 124.26 278.449C124.3 278.611 124.325 278.75 124.333 278.864C124.341 278.97 124.345 279.116 124.345 279.303C124.345 279.344 124.345 279.372 124.345 279.389V279.523C124.345 279.547 124.345 279.58 124.345 279.621C124.345 279.743 124.345 279.84 124.345 279.914C124.345 279.987 124.337 280.089 124.321 280.219C124.313 280.341 124.292 280.443 124.26 280.524C124.227 280.597 124.187 280.674 124.138 280.756C124.089 280.837 124.02 280.898 123.93 280.939C123.849 280.98 123.751 281 123.637 281H123.405C122.575 281 121.839 280.874 121.196 280.622C120.553 280.361 120.02 279.975 119.597 279.462C118.734 280.487 117.204 281 115.007 281H105.058C103.194 281 101.778 280.504 100.81 279.511C99.8416 278.518 99.3574 277.073 99.3574 275.177V272.724V272.296H99.7847H101.921H102.348V272.724V275.165C102.348 276.142 102.564 276.85 102.995 277.289C103.435 277.729 104.134 277.948 105.095 277.948ZM123.515 281C123.149 281 122.88 280.858 122.709 280.573C122.53 280.288 122.441 279.938 122.441 279.523V279.389C122.441 278.965 122.518 278.632 122.673 278.388C122.868 278.095 123.149 277.948 123.515 277.948H127.238C128.06 277.948 128.846 277.859 129.594 277.68C130.343 277.501 131.063 277.232 131.755 276.874L134.501 275.434L132.805 274.469C131.771 273.867 130.807 273.586 129.912 273.627C129.016 273.668 128.15 274.022 127.312 274.689L126.433 275.385L126.115 275.629L125.847 275.336L124.443 273.749L124.15 273.419L124.492 273.139L125.236 272.516C126.571 271.385 127.95 270.746 129.375 270.6C130.807 270.445 132.251 270.787 133.708 271.625L136.015 272.956C136.805 273.411 137.496 273.7 138.09 273.822L138.432 273.896V274.25V276.435V276.691L138.212 276.813L133.232 279.511C131.409 280.504 129.419 281 127.263 281H123.515ZM141.167 264.716H143.193H143.62V265.143V280.561V280.988H143.193H141.167H140.739V280.561V265.143V264.716H141.167ZM144.157 283.612C144.906 283.62 145.549 283.543 146.086 283.38C146.631 283.226 147.079 282.986 147.429 282.66C147.787 282.335 148.047 281.928 148.21 281.439C148.381 280.959 148.466 280.382 148.466 279.706V273.188V272.772L148.894 272.76L151.018 272.748H151.445V273.175V279.743C151.445 281.989 150.826 283.694 149.589 284.857C148.361 286.021 146.562 286.611 144.194 286.627L143.303 286.64H142.875V286.212V284.04V283.612H143.303H144.157Z" fill="#00A2E9"/>
</g>
<defs>
<linearGradient id="paint0_linear_113_48" x1="13" y1="20" x2="268" y2="300" gradientUnits="userSpaceOnUse">
<stop stop-color="#ACCE22"/>
<stop offset="0.369792" stop-color="#ACCE22" stop-opacity="0.722656"/>
<stop offset="0.6875" stop-color="#00A2E9" stop-opacity="0.484375"/>
<stop offset="1" stop-color="#00A2E9"/>
</linearGradient>
<clipPath id="clip0_113_48">
<rect width="279" height="300" fill="white"/>
</clipPath>
</defs>
</svg>
